<?xml version="1.0" encoding="UTF-8" standalone="no"?>
<!-- Created with Inkscape (http://www.inkscape.org/) -->

<svg
   xmlns:dc="http://purl.org/dc/elements/1.1/"
   xmlns:cc="http://creativecommons.org/ns#"
   xmlns:rdf="http://www.w3.org/1999/02/22-rdf-syntax-ns#"
   xmlns:svg="http://www.w3.org/2000/svg"
   xmlns="http://www.w3.org/2000/svg"
   xmlns:sodipodi="http://sodipodi.sourceforge.net/DTD/sodipodi-0.dtd"
   xmlns:inkscape="http://www.inkscape.org/namespaces/inkscape"
   width="600"
   height="300"
   viewBox="0 0 158.75 79.375002"
   version="1.1"
   id="svg8"
   sodipodi:docname="logo.svg"
   inkscape:export-filename="/home/jakob/Code/crew-db/static/img/logo.png"
   inkscape:export-xdpi="600"
   inkscape:export-ydpi="600"
   inkscape:version="0.92.4 5da689c313, 2019-01-14">
  <defs
     id="defs2" />
  <sodipodi:namedview
     id="base"
     pagecolor="#ffffff"
     bordercolor="#666666"
     borderopacity="1.0"
     inkscape:pageopacity="0.0"
     inkscape:pageshadow="2"
     inkscape:zoom="1.0735751"
     inkscape:cx="337.14286"
     inkscape:cy="111.42857"
     inkscape:document-units="mm"
     inkscape:current-layer="layer1"
     showgrid="false"
     units="px"
     inkscape:window-width="2560"
     inkscape:window-height="1406"
     inkscape:window-x="0"
     inkscape:window-y="0"
     inkscape:window-maximized="1" />
  <metadata
     id="metadata5">
    <rdf:RDF>
      <cc:Work
         rdf:about="">
        <dc:format>image/svg+xml</dc:format>
        <dc:type
           rdf:resource="http://purl.org/dc/dcmitype/StillImage" />
        <dc:title></dc:title>
      </cc:Work>
    </rdf:RDF>
  </metadata>
  <g
     inkscape:label="Layer 1"
     inkscape:groupmode="layer"
     id="layer1"
     transform="translate(0,-217.62498)">
    <g
       aria-label="Member Port"
       transform="matrix(1.043842,0,0,1.043842,-64.669437,161.2309)"
       style="font-style:normal;font-variant:normal;font-weight:normal;font-stretch:normal;font-size:40px;line-height:1.25;font-family:Lato;-inkscape-font-specification:'Lato, Normal';font-variant-ligatures:normal;font-variant-caps:normal;font-variant-numeric:normal;font-feature-settings:normal;text-align:start;letter-spacing:0px;word-spacing:0px;writing-mode:lr-tb;text-anchor:start;fill:#000000;fill-opacity:1;stroke:none"
       id="flowRoot815">
      <path
         d="m 84.213281,101.43609 q 0.2,0 0.34,0.14 l 0.8,0.86 q -0.88,0.94 -1.92,1.7 -1.02,0.74 -2.26,1.28 -1.22,0.52 -2.7,0.8 -1.46,0.3 -3.22,0.3 -2.94,0 -5.4,-1.02 -2.44,-1.04 -4.2,-2.92 -1.76,-1.9 -2.74,-4.579996 -0.96,-2.68 -0.96,-5.96 0,-3.22 1,-5.88 1,-2.66 2.8,-4.56 1.8,-1.92 4.32,-2.96 2.52,-1.06 5.56,-1.06 2.9,0 5.14,0.9 2.24,0.9 4.08,2.54 l -0.62,0.9 q -0.16,0.24 -0.5,0.24 -0.24,0 -0.78,-0.44 -0.54,-0.44 -1.5,-0.96 -0.96,-0.54 -2.4,-0.98 -1.42,-0.44 -3.42,-0.44 -2.56,0 -4.7,0.88 -2.12,0.88 -3.66,2.52 -1.52,1.64 -2.38,4 -0.86,2.36 -0.86,5.3 0,3 0.86,5.36 0.88,2.36 2.4,3.999996 1.52,1.62 3.58,2.5 2.08,0.86 4.48,0.86 1.52,0 2.7,-0.2 1.2,-0.2 2.2,-0.6 1,-0.4 1.86,-0.98 0.86,-0.58 1.7,-1.36 0.1,-0.08 0.2,-0.12 0.1,-0.06 0.2,-0.06 z"
         style="font-style:normal;font-variant:normal;font-weight:300;font-stretch:normal;font-size:40px;font-family:Lato;-inkscape-font-specification:'Lato, Light';font-variant-ligatures:normal;font-variant-caps:normal;font-variant-numeric:normal;font-feature-settings:normal;text-align:start;writing-mode:lr-tb;text-anchor:start"
         id="path878" />
      <path
         d="m 91.510156,91.096094 q 0.46,-1.22 1.04,-2.16 0.6,-0.96 1.36,-1.62 0.78,-0.66 1.72,-1 0.96,-0.36 2.12,-0.36 0.62,0 1.22,0.12 0.6,0.1 1.060004,0.38 l -0.160004,1.32 q -0.1,0.32 -0.38,0.32 -0.24,0 -0.74,-0.14 -0.48,-0.14 -1.28,-0.14 -1.16,0 -2.06,0.36 -0.88,0.34 -1.6,1.04 -0.7,0.7 -1.24,1.74 -0.52,1.02 -0.96,2.36 v 12.879996 h -1.92 V 86.296094 h 1.02 q 0.34,0 0.48,0.14 0.14,0.14 0.18,0.48 z"
         style="font-style:normal;font-variant:normal;font-weight:300;font-stretch:normal;font-size:40px;font-family:Lato;-inkscape-font-specification:'Lato, Light';font-variant-ligatures:normal;font-variant-caps:normal;font-variant-numeric:normal;font-feature-settings:normal;text-align:start;writing-mode:lr-tb;text-anchor:start"
         id="path880" />
      <path
         d="m 116.69703,94.236094 q 0,-1.6 -0.46,-2.86 -0.44,-1.28 -1.26,-2.16 -0.82,-0.88 -1.96,-1.34 -1.12,-0.48 -2.48,-0.48 -1.54,0 -2.76,0.48 -1.22,0.48 -2.12,1.38 -0.88,0.9 -1.42,2.16 -0.54,1.26 -0.72,2.82 z m -13.28,1.22 v 0.38 q 0,2.24 0.52,3.94 0.52,1.699996 1.48,2.859996 0.96,1.14 2.32,1.72 1.36,0.58 3.04,0.58 1.5,0 2.6,-0.32 1.1,-0.34 1.84,-0.74 0.76,-0.42 1.2,-0.74 0.44,-0.34 0.64,-0.34 0.26,0 0.4,0.2 l 0.52,0.64 q -0.48,0.6 -1.28,1.12 -0.78,0.52 -1.76,0.9 -0.96,0.36 -2.08,0.58 -1.1,0.22 -2.22,0.22 -2.04,0 -3.72,-0.7 -1.68,-0.72 -2.88,-2.08 -1.2,-1.36 -1.86,-3.32 -0.64,-1.979996 -0.64,-4.519996 0,-2.14 0.6,-3.94 0.62,-1.82 1.76,-3.12 1.16,-1.32 2.82,-2.06 1.68,-0.74 3.8,-0.74 1.68,0 3.12,0.58 1.44,0.58 2.5,1.7 1.06,1.1 1.66,2.72 0.62,1.62 0.62,3.72 0,0.44 -0.12,0.6 -0.12,0.16 -0.4,0.16 z"
         style="font-style:normal;font-variant:normal;font-weight:300;font-stretch:normal;font-size:40px;font-family:Lato;-inkscape-font-specification:'Lato, Light';font-variant-ligatures:normal;font-variant-caps:normal;font-variant-numeric:normal;font-feature-settings:normal;text-align:start;writing-mode:lr-tb;text-anchor:start"
         id="path882" />
      <path
         d="m 149.81828,86.296094 -6.64,19.899996 h -1.42 q -0.34,0 -0.46,-0.42 l -5.44,-16.159996 q -0.1,-0.3 -0.18,-0.6 -0.08,-0.3 -0.14,-0.6 -0.1,0.6 -0.3,1.2 l -5.52,16.159996 q -0.12,0.42 -0.48,0.42 h -1.36 l -6.64,-19.899996 h 1.44 q 0.28,0 0.46,0.16 0.18,0.14 0.24,0.32 l 5.02,15.699996 q 0.12,0.46 0.22,0.9 0.1,0.42 0.16,0.84 0.12,-0.42 0.24,-0.84 0.12,-0.44 0.28,-0.9 l 5.32,-15.839996 q 0.14,-0.44 0.56,-0.44 h 0.78 q 0.44,0 0.58,0.44 l 5.28,15.839996 q 0.14,0.46 0.26,0.88 0.12,0.42 0.22,0.84 0.08,-0.42 0.16,-0.84 0.1,-0.42 0.24,-0.88 l 5.06,-15.699996 q 0.08,-0.22 0.26,-0.34 0.18,-0.14 0.42,-0.14 z"
         style="font-style:normal;font-variant:normal;font-weight:300;font-stretch:normal;font-size:40px;font-family:Lato;-inkscape-font-specification:'Lato, Light';font-variant-ligatures:normal;font-variant-caps:normal;font-variant-numeric:normal;font-feature-settings:normal;text-align:start;writing-mode:lr-tb;text-anchor:start"
         id="path884" />
      <path
         d="m 188.80516,92.036094 q 0,3.28 -0.98,5.9 -0.98,2.619996 -2.76,4.459996 -1.78,1.84 -4.28,2.82 -2.48,0.98 -5.48,0.98 h -10.34 V 77.896094 h 10.34 q 3,0 5.48,0.98 2.5,0.98 4.28,2.82 1.78,1.84 2.76,4.46 0.98,2.62 0.98,5.88 z m -2.12,0 q 0,-2.96 -0.82,-5.28 -0.82,-2.32 -2.32,-3.92 -1.5,-1.6 -3.6,-2.44 -2.1,-0.84 -4.64,-0.84 h -8.28 v 24.979996 h 8.28 q 2.54,0 4.64,-0.84 2.1,-0.84 3.6,-2.44 1.5,-1.599996 2.32,-3.919996 0.82,-2.32 0.82,-5.3 z"
         style="font-style:normal;font-variant:normal;font-weight:300;font-stretch:normal;font-size:40px;font-family:Lato;-inkscape-font-specification:'Lato, Light';font-variant-ligatures:normal;font-variant-caps:normal;font-variant-numeric:normal;font-feature-settings:normal;text-align:start;writing-mode:lr-tb;text-anchor:start"
         id="path886" />
      <path
         d="m 204.51578,104.55609 q 3.72,0 5.62,-1.6 1.92,-1.62 1.92,-4.539996 0,-1.34 -0.52,-2.4 -0.5,-1.08 -1.46,-1.82 -0.96,-0.76 -2.36,-1.16 -1.4,-0.4 -3.18,-0.4 h -7.12 v 11.919996 z m -7.1,-25.039996 v 11.62 h 6.12 q 1.96,0 3.34,-0.5 1.4,-0.5 2.28,-1.32 0.9,-0.82 1.32,-1.86 0.42,-1.04 0.42,-2.14 0,-2.86 -1.82,-4.32 -1.8,-1.48 -5.58,-1.48 z m 6.08,-1.62 q 2.42,0 4.2,0.48 1.78,0.48 2.94,1.42 1.16,0.92 1.72,2.26 0.56,1.34 0.56,3.04 0,1.12 -0.4,2.16 -0.38,1.04 -1.12,1.92 -0.72,0.88 -1.8,1.54 -1.06,0.64 -2.44,0.98 3.34,0.48 5.12,2.22 1.8,1.72 1.8,4.54 0,1.799996 -0.64,3.239996 -0.64,1.44 -1.86,2.44 -1.22,1 -3,1.54 -1.78,0.52 -4.04,0.52 h -9.18 V 77.896094 Z"
         style="font-style:normal;font-variant:normal;font-weight:300;font-stretch:normal;font-size:40px;font-family:Lato;-inkscape-font-specification:'Lato, Light';font-variant-ligatures:normal;font-variant-caps:normal;font-variant-numeric:normal;font-feature-settings:normal;text-align:start;writing-mode:lr-tb;text-anchor:start"
         id="path888" />
    </g>
  </g>
</svg>
