<?xml version="1.0" encoding="UTF-8" standalone="no"?>
<svg
   width="600"
   height="300"
   viewBox="0 0 158.75 79.375002"
   version="1.1"
   id="svg8"
   sodipodi:docname="logo.svg"
   inkscape:export-filename="/home/jakob/Code/crew-db/static/img/logo.png"
   inkscape:export-xdpi="600"
   inkscape:export-ydpi="600"
   inkscape:version="1.2.2 (b0a8486541, 2022-12-01)"
   xmlns:inkscape="http://www.inkscape.org/namespaces/inkscape"
   xmlns:sodipodi="http://sodipodi.sourceforge.net/DTD/sodipodi-0.dtd"
   xmlns="http://www.w3.org/2000/svg"
   xmlns:svg="http://www.w3.org/2000/svg"
   xmlns:rdf="http://www.w3.org/1999/02/22-rdf-syntax-ns#"
   xmlns:cc="http://creativecommons.org/ns#"
   xmlns:dc="http://purl.org/dc/elements/1.1/">
  <defs
     id="defs2">
    <rect
       x="-0.98580279"
       y="223.78625"
       width="174.73355"
       height="64.570083"
       id="rect911" />
  </defs>
  <sodipodi:namedview
     id="base"
     pagecolor="#ffffff"
     bordercolor="#666666"
     borderopacity="1.0"
     inkscape:pageopacity="0.0"
     inkscape:pageshadow="2"
     inkscape:zoom="1.0735751"
     inkscape:cx="302.26111"
     inkscape:cy="112.2418"
     inkscape:document-units="mm"
     inkscape:current-layer="layer1"
     showgrid="false"
     units="px"
     inkscape:window-width="1920"
     inkscape:window-height="1010"
     inkscape:window-x="0"
     inkscape:window-y="0"
     inkscape:window-maximized="1"
     inkscape:document-rotation="0"
     inkscape:showpageshadow="0"
     inkscape:pagecheckerboard="1"
     inkscape:deskcolor="#d1d1d1" />
  <metadata
     id="metadata5">
    <rdf:RDF>
      <cc:Work
         rdf:about="">
        <dc:format>image/svg+xml</dc:format>
        <dc:type
           rdf:resource="http://purl.org/dc/dcmitype/StillImage" />
      </cc:Work>
    </rdf:RDF>
  </metadata>
  <g
     inkscape:label="Layer 1"
     inkscape:groupmode="layer"
     id="layer1"
     transform="translate(0,-217.62498)">
    <text
       xml:space="preserve"
       id="text909"
       style="font-style:normal;font-weight:normal;font-size:10.5833px;line-height:1.25;font-family:sans-serif;white-space:pre;shape-inside:url(#rect911);fill:#000000;fill-opacity:1;stroke:none" />
    <g
       aria-label="MemberPort"
       id="text917"
       style="font-weight:300;font-size:29.6333px;line-height:1.25;font-family:Lato;-inkscape-font-specification:'Lato, Light';stroke-width:0.264583">
      <path
         d="m 21.316127,247.00749 v 20.96556 h -1.318682 v -17.86888 q 0,-0.38523 0.04445,-0.81491 l -8.252874,14.65366 q -0.207433,0.38524 -0.592666,0.38524 h -0.237066 q -0.385233,0 -0.592666,-0.38524 l -8.4751245,-14.6833 q 0.04445,0.4445 0.04445,0.84455 v 17.86888 H 0.6024499 v -20.96556 h 1.0519822 q 0.2074331,0 0.3259663,0.0445 0.1185332,0.0445 0.2370664,0.23707 l 8.4603072,14.57958 q 0.22225,0.41487 0.385233,0.889 0.0889,-0.23706 0.192617,-0.45931 0.103716,-0.23707 0.222249,-0.4445 l 8.223241,-14.56477 q 0.118533,-0.19262 0.237067,-0.23707 0.13335,-0.0445 0.340783,-0.0445 z"
         id="path169" />
      <path
         d="m 36.710634,259.1127 q 0,-1.18534 -0.340783,-2.11878 -0.325967,-0.94827 -0.933449,-1.6002 -0.607483,-0.65194 -1.452032,-0.99272 -0.829733,-0.3556 -1.837265,-0.3556 -1.140882,0 -2.044698,0.3556 -0.903815,0.3556 -1.570564,1.02235 -0.651933,0.66675 -1.051983,1.6002 -0.400049,0.93345 -0.533399,2.08915 z m -9.838256,0.90381 v 0.28152 q 0,1.65946 0.385233,2.91888 0.385232,1.25941 1.096432,2.11878 0.711199,0.84455 1.718731,1.27423 1.007532,0.42968 2.252131,0.42968 1.111249,0 1.926165,-0.23706 0.814915,-0.25189 1.363131,-0.54822 0.563033,-0.31115 0.888999,-0.54821 0.325967,-0.25189 0.474133,-0.25189 0.192617,0 0.296333,0.14817 l 0.385233,0.47413 q -0.355599,0.4445 -0.948265,0.82973 -0.57785,0.38524 -1.303866,0.66675 -0.711199,0.2667 -1.540931,0.42969 -0.814916,0.16298 -1.644649,0.16298 -1.511298,0 -2.755897,-0.51858 -1.244598,-0.5334 -2.133597,-1.54093 -0.888999,-1.00754 -1.377949,-2.45957 -0.474132,-1.46685 -0.474132,-3.34856 0,-1.58538 0.444499,-2.91888 0.459316,-1.34832 1.303865,-2.3114 0.859366,-0.9779 2.089148,-1.52611 1.244599,-0.54822 2.815164,-0.54822 1.244598,0 2.311397,0.42968 1.066799,0.42969 1.852081,1.25942 0.785283,0.81491 1.229782,2.01506 0.459316,1.20015 0.459316,2.7559 0,0.32597 -0.0889,0.4445 -0.0889,0.11853 -0.296333,0.11853 z"
         id="path171" />
      <path
         d="m 41.822366,267.97305 v -14.74256 h 0.785282 q 0.370417,0 0.429683,0.37041 l 0.13335,2.1336 q 0.859366,-1.22978 1.970615,-1.98543 1.111248,-0.75565 2.504014,-0.75565 1.615014,0 2.578097,0.93345 0.977899,0.93345 1.318682,2.59291 0.266699,-0.90381 0.740832,-1.57056 0.48895,-0.66675 1.111249,-1.09643 0.622299,-0.4445 1.348315,-0.65194 0.740833,-0.20743 1.511298,-0.20743 1.096433,0 1.970615,0.37042 0.874182,0.3556 1.481665,1.06679 0.607483,0.7112 0.933449,1.74837 0.325966,1.03716 0.325966,2.37066 v 9.42339 h -1.407582 v -9.42339 q 0,-2.16323 -0.933448,-3.28929 -0.933449,-1.14089 -2.666998,-1.14089 -0.770465,0 -1.481665,0.28152 -0.696382,0.28152 -1.244598,0.84455 -0.5334,0.54822 -0.859366,1.37795 -0.31115,0.82973 -0.31115,1.92616 v 9.42339 h -1.422398 v -9.42339 q 0,-2.14841 -0.859366,-3.28929 -0.844549,-1.14089 -2.489197,-1.14089 -1.200149,0 -2.222498,0.7112 -1.022348,0.7112 -1.822448,1.97062 v 11.17175 z"
         id="path173" />
      <path
         d="m 67.099585,264.75784 q 0.859365,1.27423 1.881714,1.79281 1.037166,0.50377 2.326214,0.50377 1.318682,0 2.296581,-0.47413 0.992716,-0.47413 1.644648,-1.34832 0.66675,-0.889 0.992716,-2.14841 0.325966,-1.25942 0.325966,-2.82998 0,-3.05223 -1.214965,-4.59316 -1.214965,-1.54094 -3.40783,-1.54094 -1.570565,0 -2.74108,0.75565 -1.170515,0.75565 -2.103964,2.10397 z m 0,-8.96407 q 0.963082,-1.30387 2.252131,-2.0447 1.289048,-0.75565 2.992963,-0.75565 1.333498,0 2.385481,0.48895 1.051982,0.48895 1.777998,1.40758 0.740832,0.91863 1.126065,2.26695 0.385233,1.3335 0.385233,3.03741 0,1.79282 -0.429683,3.27448 -0.429683,1.46685 -1.259415,2.51883 -0.814916,1.03717 -2.000248,1.61502 -1.185332,0.56303 -2.711447,0.56303 -1.570565,0 -2.681814,-0.59267 -1.096432,-0.60748 -1.896531,-1.79281 l -0.103716,1.82245 q -0.04445,0.37041 -0.40005,0.37041 h -0.859366 v -21.55822 h 1.422399 z"
         id="path175" />
      <path
         d="m 92.347173,259.1127 q 0,-1.18534 -0.340783,-2.11878 -0.325966,-0.94827 -0.933449,-1.6002 -0.607483,-0.65194 -1.452032,-0.99272 -0.829732,-0.3556 -1.837264,-0.3556 -1.140882,0 -2.044698,0.3556 -0.903816,0.3556 -1.570565,1.02235 -0.651933,0.66675 -1.051982,1.6002 -0.40005,0.93345 -0.5334,2.08915 z m -9.838256,0.90381 v 0.28152 q 0,1.65946 0.385233,2.91888 0.385233,1.25941 1.096432,2.11878 0.711199,0.84455 1.718732,1.27423 1.007532,0.42968 2.25213,0.42968 1.111249,0 1.926165,-0.23706 0.814916,-0.25189 1.363132,-0.54822 0.563033,-0.31115 0.888999,-0.54821 0.325966,-0.25189 0.474133,-0.25189 0.192616,0 0.296333,0.14817 l 0.385233,0.47413 q -0.3556,0.4445 -0.948266,0.82973 -0.577849,0.38524 -1.303865,0.66675 -0.711199,0.2667 -1.540932,0.42969 -0.814916,0.16298 -1.644648,0.16298 -1.511298,0 -2.755897,-0.51858 -1.244599,-0.5334 -2.133598,-1.54093 -0.888999,-1.00754 -1.377948,-2.45957 -0.474133,-1.46685 -0.474133,-3.34856 0,-1.58538 0.444499,-2.91888 0.459317,-1.34832 1.303866,-2.3114 0.859365,-0.9779 2.089147,-1.52611 1.244599,-0.54822 2.815164,-0.54822 1.244599,0 2.311397,0.42968 1.066799,0.42969 1.852082,1.25942 0.785282,0.81491 1.229782,2.01506 0.459316,1.20015 0.459316,2.7559 0,0.32597 -0.0889,0.4445 -0.0889,0.11853 -0.296333,0.11853 z"
         id="path177" />
      <path
         d="m 98.807224,256.78648 q 0.340783,-0.90381 0.770466,-1.6002 0.4445,-0.7112 1.00753,-1.20014 0.57785,-0.48895 1.27423,-0.74084 0.7112,-0.2667 1.57057,-0.2667 0.45932,0 0.90382,0.0889 0.44449,0.0741 0.78528,0.28152 l -0.11854,0.9779 q -0.0741,0.23706 -0.28151,0.23706 -0.1778,0 -0.54822,-0.10371 -0.3556,-0.10372 -0.94826,-0.10372 -0.85937,0 -1.52612,0.2667 -0.65193,0.25188 -1.18533,0.77047 -0.518584,0.51858 -0.918633,1.28905 -0.385233,0.75564 -0.711199,1.74836 v 9.54192 h -1.422399 v -14.74256 h 0.755649 q 0.251883,0 0.3556,0.10371 0.103717,0.10372 0.13335,0.3556 z"
         id="path179" />
      <path
         d="m 113.7424,258.3126 q 1.37795,0 2.47438,-0.38524 1.09643,-0.38523 1.85208,-1.06679 0.77047,-0.68157 1.17052,-1.6002 0.41486,-0.93345 0.41486,-2.02988 0,-2.41512 -1.48166,-3.71898 -1.48167,-1.30387 -4.43018,-1.30387 h -3.89678 v 10.10496 z m 0,-11.30511 q 3.68935,0 5.55624,1.61502 1.88172,1.61501 1.88172,4.60798 0,1.37794 -0.51858,2.53364 -0.51859,1.1557 -1.48167,2.00025 -0.96308,0.82973 -2.34103,1.30387 -1.37795,0.45931 -3.09668,0.45931 h -3.89678 v 8.44549 h -1.52611 v -20.96556 z"
         id="path181" />
      <path
         d="m 129.71471,252.99342 q 1.58539,0 2.82998,0.54822 1.25942,0.53339 2.11879,1.52611 0.85936,0.99272 1.30386,2.4003 0.45932,1.39276 0.45932,3.12631 0,1.73355 -0.45932,3.12631 -0.4445,1.39277 -1.30386,2.38549 -0.85937,0.99271 -2.11879,1.52611 -1.24459,0.5334 -2.82998,0.5334 -1.58538,0 -2.84479,-0.5334 -1.2446,-0.5334 -2.11878,-1.52611 -0.85937,-0.99272 -1.31869,-2.38549 -0.44449,-1.39276 -0.44449,-3.12631 0,-1.73355 0.44449,-3.12631 0.45932,-1.40758 1.31869,-2.4003 0.87418,-0.99272 2.11878,-1.52611 1.25941,-0.54822 2.84479,-0.54822 z m 0,14.061 q 1.31869,0 2.29659,-0.4445 0.99271,-0.45932 1.64464,-1.30386 0.66675,-0.84455 0.99272,-2.02989 0.32597,-1.20014 0.32597,-2.68181 0,-1.46685 -0.32597,-2.667 -0.32597,-1.20014 -0.99272,-2.04469 -0.65193,-0.85937 -1.64464,-1.31869 -0.9779,-0.45931 -2.29659,-0.45931 -1.31868,0 -2.31139,0.45931 -0.9779,0.45932 -1.64465,1.31869 -0.65193,0.84455 -0.99272,2.04469 -0.32596,1.20015 -0.32596,2.667 0,1.48167 0.32596,2.68181 0.34079,1.18534 0.99272,2.02989 0.66675,0.84454 1.64465,1.30386 0.99271,0.4445 2.31139,0.4445 z"
         id="path183" />
      <path
         d="m 141.76067,256.78648 q 0.34078,-0.90381 0.77047,-1.6002 0.4445,-0.7112 1.00753,-1.20014 0.57785,-0.48895 1.27423,-0.74084 0.7112,-0.2667 1.57056,-0.2667 0.45932,0 0.90382,0.0889 0.4445,0.0741 0.78528,0.28152 l -0.11853,0.9779 q -0.0741,0.23706 -0.28152,0.23706 -0.1778,0 -0.54821,-0.10371 -0.3556,-0.10372 -0.94827,-0.10372 -0.85936,0 -1.52611,0.2667 -0.65194,0.25188 -1.18534,0.77047 -0.51858,0.51858 -0.91863,1.28905 -0.38523,0.75564 -0.7112,1.74836 v 9.54192 h -1.4224 v -14.74256 h 0.75565 q 0.25189,0 0.3556,0.10371 0.10372,0.10372 0.13335,0.3556 z"
         id="path185" />
      <path
         d="m 154.91786,268.21012 q -1.49649,0 -2.34103,-0.82973 -0.82974,-0.82974 -0.82974,-2.56328 v -10.07533 h -2.11878 q -0.16298,0 -0.2667,-0.0889 -0.10371,-0.0889 -0.10371,-0.25188 v -0.54821 l 2.51883,-0.1778 0.3556,-5.27473 q 0.0296,-0.13335 0.11853,-0.23707 0.0889,-0.10372 0.25188,-0.10372 h 0.66675 v 5.63033 h 4.65243 v 1.05198 h -4.65243 v 10.00124 q 0,0.60749 0.14817,1.05199 0.16298,0.42968 0.42968,0.71119 0.28152,0.28152 0.65193,0.41487 0.37042,0.13335 0.8001,0.13335 0.5334,0 0.91863,-0.14817 0.38524,-0.16298 0.66675,-0.34078 0.28152,-0.19262 0.45932,-0.34078 0.1778,-0.16298 0.28152,-0.16298 0.11853,0 0.23706,0.14816 l 0.38524,0.6223 q -0.56304,0.6223 -1.43722,1.00753 -0.85937,0.37042 -1.79281,0.37042 z"
         id="path187" />
    </g>
  </g>
</svg>
